# xmcd CD database file
#
# Track frame offsets:
#	150
#	21785
#	36685
#	43580
#	89245
#	127117
#	131440
#	155052
#	167650
#	188285
#	207442
#	237437
#	272815
#
# Disc length: 4377 seconds
#
# Revision: 0
# Processed by: cddbd v1.5.1PL0 Copyright (c) Steve Scherf et al.
# Submitted via: CDex 1.51
#
DISCID=bf11170d
DTITLE=関智一・他 - アニメ店長　オリジナルドラマCD　アニメ店長VS店長候補生　バージョンA　兄沢、愛の暴走！　編
DYEAR=1900
DGENRE=アニメ
TTITLE0=キャバクラ「萌え萌え」
TTITLE1=池袋本店、店内
TTITLE2=関智一/「アニメ店長　Secondイグニッション！」
TTITLE3=正夢
TTITLE4=社長室
TTITLE5=各店舗へ通達
TTITLE6=兄沢VS道玄坂
TTITLE7=大名行列
TTITLE8=兄沢VS殿鬼
TTITLE9=道玄坂の部屋
TTITLE10=萌え萌えランド
TTITLE11=アニメの塔
TTITLE12=身近な、未来〜エピローグ
EXTD=
EXTT0=
EXTT1=
EXTT2=
EXTT3=
EXTT4=
EXTT5=
EXTT6=
EXTT7=
EXTT8=
EXTT9=
EXTT10=
EXTT11=
EXTT12=
PLAYORDER=
